<svg height="40" viewBox="0 0 40 40" width="40" xmlns="http://www.w3.org/2000/svg"><path d="m18.4599276.111839c6.4289878-.85444814 12.9059248 3.27508441 15.0339924 9.37677347.7033251 2.01667563.7932189 4.38489073.5197269 6.49048493-.3190896 2.4566518-1.3974833 4.445822-2.5841068 6.5716198-1.3563494 2.429955-2.7969122 4.8208068-4.2065636 7.2206646-1.4824279 2.5237446-2.9436795 5.0698797-4.3706137 7.6263202-.5456868.9775484-1.1021642 2.4235478-2.3641583 2.5811861-1.4824071.1850935-2.1352694-.8775554-2.7579013-1.9856633l-.1622656-.2893123-.0816038-.1439473c-1.5778366-2.7608103-3.1194884-5.5489604-4.7543617-8.2753706-3.60814057-6.0169238-9.1629589-13.4597272-5.56914545-20.76955419.57854603-1.17676667 1.22876236-2.3145659 2.07118036-3.32637407 1.03369059-1.24143644 2.24286799-2.31131861 3.62777609-3.1475847 1.7484548-1.05576844 3.583234-1.66146335 5.5980445-1.92924264zm3.8942917 17.4033954c3.7009551-2.3018504 1.5775927-8.32323814-2.7584576-7.75978096-.6385013.0829967-1.238142.29085296-1.7848844.63095566-3.7009551 2.3018504-1.5775927 8.3232368 2.7584587 7.7597819.6385013-.0829967 1.2381409-.2908553 1.7848833-.6309566z" fill="#222220"/></svg>